# xmcd
#
# Track frame offsets: 
#        150
#        31845
#        62770
#        95687
#        132360
#        165380
#        198231
#        236697
#        269377
#        291544
#        311396
#        332651
#
# Disc length: 4709 seconds
#
# Revision: 0
# Processed by: cddbd v1.5.2PL0 Copyright (c) Steve Scherf et al.
# Submitted via: ExactAudioCopy v1.0b3
#
DISCID=ab12630c
DTITLE=Various Artist - Lost In Trance Vol. 2 - CD 1
DYEAR=1900
DGENRE=
TTITLE0=Southside Spinners - Luvstruck 2010 (Marco V Revixed)
TTITLE1=Cosmic Gate - Barra (Extended Mix)
TTITLE2=Jochen Miller and Rank 1 - The Great Escape (Extended Mix)
TTITLE3=BT Feat. Yes - Every Other Way (Armin Van Buuren Remix)
TTITLE4=Alexander Popov - Metropolis (Original Mix)
TTITLE5=Ernesto Vs. Bastian - Hailing From New York (Teutonic Mix)
TTITLE6=Tydi - Good Dream (Original Mix)
TTITLE7=Ronald De Foe - Razor Sound (Rugged Mix)
TTITLE8=Chris Metcalfe - Outback (Guiseppe Ottaviani Remix Edit)
TTITLE9=Daniel Wanrooy - Pretoria (Original Mix Edit)
TTITLE10=San Feat. Jan Johnston - Perfect Dreams (Original Mix Edit)
TTITLE11=Leon Bolier - Shimamoto (Original Mix Edit)
EXTD=
EXTT0=
EXTT1=
EXTT2=
EXTT3=
EXTT4=
EXTT5=
EXTT6=
EXTT7=
EXTT8=
EXTT9=
EXTT10=
EXTT11=
PLAYORDER=
